<svg width="195" height="194" viewBox="0 0 195 194" fill="none" xmlns="http://www.w3.org/2000/svg">
<g filter="url(#filter0_f_5_1072)">
<path d="M97.5225 148.276C126.301 148.276 149.631 125.214 149.631 96.7653C149.631 68.317 126.301 45.2551 97.5225 45.2551C68.7439 45.2551 45.4143 68.317 45.4143 96.7653C45.4143 125.214 68.7439 148.276 97.5225 148.276Z" fill="#AD69F0" fill-opacity="0.6"/>
</g>
<path d="M92.3258 129.455C121.104 129.455 144.434 106.393 144.434 77.9448C144.434 49.4965 121.104 26.4346 92.3258 26.4346C63.5473 26.4346 40.2178 49.4965 40.2178 77.9448C40.2178 106.393 63.5473 129.455 92.3258 129.455Z" fill="url(#paint0_linear_5_1072)"/>
<g filter="url(#filter1_f_5_1072)">
<path d="M134.074 77.9448C134.074 100.72 115.394 119.202 92.3258 119.202C69.258 119.202 50.5776 100.72 50.5776 77.9448C50.5776 55.1697 69.258 36.6871 92.3258 36.6871C115.394 36.6871 134.074 55.1697 134.074 77.9448Z" stroke="url(#paint1_linear_5_1072)" stroke-width="2"/>
</g>
<g filter="url(#filter2_f_5_1072)">
<path d="M134.074 77.9448C134.074 100.72 115.394 119.202 92.3258 119.202C69.258 119.202 50.5776 100.72 50.5776 77.9448C50.5776 55.1697 69.258 36.6871 92.3258 36.6871C115.394 36.6871 134.074 55.1697 134.074 77.9448Z" stroke="url(#paint2_linear_5_1072)" stroke-width="2"/>
</g>
<g filter="url(#filter3_d_5_1072)">
<path d="M92.1847 93.3909C99.883 93.3909 106.154 87.1916 106.154 79.5817C106.154 71.9719 99.883 65.7725 92.1847 65.7725C84.4864 65.7725 78.2151 71.9719 78.2151 79.5817C78.2151 87.1916 84.4864 93.3909 92.1847 93.3909ZM81.615 79.5817C81.615 73.8003 86.3714 69.116 92.2023 69.116C98.0333 69.116 102.79 73.8177 102.79 79.5817C102.79 85.3457 98.0333 90.0475 92.2023 90.0475C86.3538 90.0475 81.615 85.3457 81.615 79.5817Z" fill="url(#paint3_linear_5_1072)"/>
<path d="M106.137 102.516H78.2683C73.0363 102.516 68.7732 98.3017 68.7732 93.1297V66.0163C68.7732 60.8444 73.0363 56.6302 78.2683 56.6302H106.137C111.369 56.6302 115.632 60.8444 115.632 66.0163V93.1471C115.614 98.3191 111.369 102.516 106.137 102.516ZM78.2506 60.0608C74.9212 60.0608 72.226 62.7251 72.226 66.0163V93.1471C72.226 96.4384 74.9212 99.1027 78.2506 99.1027H106.119C109.449 99.1027 112.144 96.4384 112.144 93.1471V66.0163C112.144 62.7251 109.449 60.0608 106.119 60.0608H78.2506Z" fill="url(#paint4_linear_5_1072)"/>
</g>
<defs>
<filter id="filter0_f_5_1072" x="0.414307" y="0.255066" width="194.216" height="193.021" filterUnits="userSpaceOnUse" color-interpolation-filters="sRGB">
<feFlood flood-opacity="0" result="BackgroundImageFix"/>
<feBlend mode="normal" in="SourceGraphic" in2="BackgroundImageFix" result="shape"/>
<feGaussianBlur stdDeviation="22.5" result="effect1_foregroundBlur_5_1072"/>
</filter>
<filter id="filter1_f_5_1072" x="40.5776" y="26.6871" width="103.496" height="102.515" filterUnits="userSpaceOnUse" color-interpolation-filters="sRGB">
<feFlood flood-opacity="0" result="BackgroundImageFix"/>
<feBlend mode="normal" in="SourceGraphic" in2="BackgroundImageFix" result="shape"/>
<feGaussianBlur stdDeviation="4.5" result="effect1_foregroundBlur_5_1072"/>
</filter>
<filter id="filter2_f_5_1072" x="34.5776" y="20.6871" width="115.496" height="114.515" filterUnits="userSpaceOnUse" color-interpolation-filters="sRGB">
<feFlood flood-opacity="0" result="BackgroundImageFix"/>
<feBlend mode="normal" in="SourceGraphic" in2="BackgroundImageFix" result="shape"/>
<feGaussianBlur stdDeviation="7.5" result="effect1_foregroundBlur_5_1072"/>
</filter>
<filter id="filter3_d_5_1072" x="67.7732" y="56.6302" width="50.8586" height="50.8856" filterUnits="userSpaceOnUse" color-interpolation-filters="sRGB">
<feFlood flood-opacity="0" result="BackgroundImageFix"/>
<feColorMatrix in="SourceAlpha" type="matrix" values="0 0 0 0 0 0 0 0 0 0 0 0 0 0 0 0 0 0 127 0" result="hardAlpha"/>
<feOffset dx="1" dy="3"/>
<feGaussianBlur stdDeviation="1"/>
<feComposite in2="hardAlpha" operator="out"/>
<feColorMatrix type="matrix" values="0 0 0 0 0 0 0 0 0 0 0 0 0 0 0 0 0 0 0.14 0"/>
<feBlend mode="normal" in2="BackgroundImageFix" result="effect1_dropShadow_5_1072"/>
<feBlend mode="normal" in="SourceGraphic" in2="effect1_dropShadow_5_1072" result="shape"/>
</filter>
<linearGradient id="paint0_linear_5_1072" x1="112.961" y1="28.4412" x2="69.8007" y2="134.343" gradientUnits="userSpaceOnUse">
<stop stop-color="#3A55D2"/>
<stop offset="0.1308" stop-color="#4651D5"/>
<stop offset="0.3649" stop-color="#6548DE"/>
<stop offset="1" stop-color="#FF007A"/>
</linearGradient>
<linearGradient id="paint1_linear_5_1072" x1="116.948" y1="42.7751" x2="92.8382" y2="120.362" gradientUnits="userSpaceOnUse">
<stop stop-color="#CAC2FF"/>
<stop offset="1" stop-color="white" stop-opacity="0"/>
</linearGradient>
<linearGradient id="paint2_linear_5_1072" x1="116.948" y1="42.7751" x2="92.8382" y2="120.362" gradientUnits="userSpaceOnUse">
<stop stop-color="#CAC2FF"/>
<stop offset="1" stop-color="white" stop-opacity="0"/>
</linearGradient>
<linearGradient id="paint3_linear_5_1072" x1="92.1847" y1="65.7725" x2="92.1847" y2="93.3909" gradientUnits="userSpaceOnUse">
<stop stop-color="white" stop-opacity="0.88"/>
<stop offset="1" stop-color="white" stop-opacity="0.85"/>
</linearGradient>
<linearGradient id="paint4_linear_5_1072" x1="92.2025" y1="56.6302" x2="92.2025" y2="102.516" gradientUnits="userSpaceOnUse">
<stop stop-color="white"/>
<stop offset="0.0001" stop-color="white"/>
<stop offset="1" stop-color="white" stop-opacity="0.88"/>
</linearGradient>
</defs>
</svg>
