<svg width="147" height="146" viewBox="0 0 147 146" fill="none" xmlns="http://www.w3.org/2000/svg">
<g filter="url(#filter0_f_5_1066)">
<path d="M73.7449 121.816C100.841 121.816 122.806 100.103 122.806 73.3179C122.806 46.5332 100.841 24.8199 73.7449 24.8199C46.6492 24.8199 24.6838 46.5332 24.6838 73.3179C24.6838 100.103 46.6492 121.816 73.7449 121.816Z" fill="#41BEF1" fill-opacity="0.45"/>
</g>
<path d="M61.8598 106.322C90.6383 106.322 113.968 83.2603 113.968 54.812C113.968 26.3637 90.6383 3.30176 61.8598 3.30176C33.0813 3.30176 9.75171 26.3637 9.75171 54.812C9.75171 83.2603 33.0813 106.322 61.8598 106.322Z" fill="url(#paint0_linear_5_1066)"/>
<g filter="url(#filter1_f_5_1066)">
<path d="M102.554 54.812C102.554 77.0116 84.3454 95.0276 61.8597 95.0276C39.3741 95.0276 21.1656 77.0116 21.1656 54.812C21.1656 32.6123 39.3741 14.5963 61.8597 14.5963C84.3454 14.5963 102.554 32.6123 102.554 54.812Z" stroke="url(#paint1_linear_5_1066)" stroke-width="2"/>
</g>
<g filter="url(#filter2_f_5_1066)">
<path d="M102.554 54.812C102.554 77.0116 84.3454 95.0276 61.8597 95.0276C39.3741 95.0276 21.1656 77.0116 21.1656 54.812C21.1656 32.6123 39.3741 14.5963 61.8597 14.5963C84.3454 14.5963 102.554 32.6123 102.554 54.812Z" stroke="url(#paint2_linear_5_1066)" stroke-width="2"/>
</g>
<path d="M41.311 51.9849L41.3109 51.9848C40.2918 52.39 39.528 52.7861 39.0105 53.1705C38.4877 53.5587 38.2486 53.9106 38.2099 54.2194L38.0114 54.1945L38.2099 54.2194C38.1699 54.5382 38.2525 54.7942 38.4375 55.0215C38.6289 55.2568 38.9355 55.4677 39.3526 55.6698C39.9888 55.978 40.8292 56.2422 41.797 56.5466C42.1054 56.6436 42.4268 56.7447 42.7586 56.8526L42.6968 57.0428L42.7587 56.8526C43.8628 57.2115 45.1561 57.6004 46.365 57.9036C47.5785 58.2079 48.6912 58.4216 49.441 58.4377C50.7873 58.4668 52.3134 57.9116 54.0255 56.736L54.0268 56.7351C59.9318 52.749 64.4089 49.7483 67.4579 47.733C68.9822 46.7255 70.1504 45.9638 70.9618 45.4482C71.3673 45.1906 71.6851 44.9936 71.9142 44.858C72.0285 44.7902 72.1225 44.7367 72.1952 44.6983C72.2588 44.6647 72.3288 44.63 72.3831 44.6176C72.5169 44.5872 72.6989 44.5473 72.884 44.5487C73.0719 44.5502 73.2826 44.5945 73.4579 44.7502C73.634 44.9067 73.7034 45.1227 73.729 45.2952C73.7545 45.4678 73.7411 45.6286 73.7215 45.712C73.7215 45.712 73.7215 45.712 73.7215 45.7121L73.5268 45.6663C73.363 46.3643 66.8744 52.3967 63.5183 55.5168C62.4728 56.4888 61.7314 57.1781 61.5797 57.3356L41.311 51.9849ZM41.311 51.9849L41.3169 51.9823C53.957 46.4752 62.3841 42.8453 66.5994 41.092C72.6206 38.5876 76.2522 37.1199 78.5816 36.2746C80.9144 35.428 81.9205 35.214 82.6999 35.2003L41.311 51.9849Z" fill="url(#paint3_linear_5_1066)" stroke="url(#paint4_linear_5_1066)" stroke-width="0.4"/>
<defs>
<filter id="filter0_f_5_1066" x="0.683838" y="0.819946" width="146.122" height="144.996" filterUnits="userSpaceOnUse" color-interpolation-filters="sRGB">
<feFlood flood-opacity="0" result="BackgroundImageFix"/>
<feBlend mode="normal" in="SourceGraphic" in2="BackgroundImageFix" result="shape"/>
<feGaussianBlur stdDeviation="12" result="effect1_foregroundBlur_5_1066"/>
</filter>
<filter id="filter1_f_5_1066" x="11.1656" y="4.59631" width="101.388" height="100.431" filterUnits="userSpaceOnUse" color-interpolation-filters="sRGB">
<feFlood flood-opacity="0" result="BackgroundImageFix"/>
<feBlend mode="normal" in="SourceGraphic" in2="BackgroundImageFix" result="shape"/>
<feGaussianBlur stdDeviation="4.5" result="effect1_foregroundBlur_5_1066"/>
</filter>
<filter id="filter2_f_5_1066" x="9.16565" y="2.59631" width="105.388" height="104.431" filterUnits="userSpaceOnUse" color-interpolation-filters="sRGB">
<feFlood flood-opacity="0" result="BackgroundImageFix"/>
<feBlend mode="normal" in="SourceGraphic" in2="BackgroundImageFix" result="shape"/>
<feGaussianBlur stdDeviation="5.5" result="effect1_foregroundBlur_5_1066"/>
</filter>
<linearGradient id="paint0_linear_5_1066" x1="42.9399" y1="109.685" x2="78.5006" y2="4.08511" gradientUnits="userSpaceOnUse">
<stop stop-color="#21D7FF"/>
<stop offset="0.8518" stop-color="#1C84DB"/>
<stop offset="1" stop-color="#1C84E4"/>
</linearGradient>
<linearGradient id="paint1_linear_5_1066" x1="88.6226" y1="5.85073" x2="21.0979" y2="87.9958" gradientUnits="userSpaceOnUse">
<stop stop-color="white"/>
<stop offset="1" stop-color="white" stop-opacity="0"/>
</linearGradient>
<linearGradient id="paint2_linear_5_1066" x1="88.6226" y1="5.85073" x2="21.0979" y2="87.9958" gradientUnits="userSpaceOnUse">
<stop stop-color="white"/>
<stop offset="1" stop-color="white" stop-opacity="0"/>
</linearGradient>
<linearGradient id="paint3_linear_5_1066" x1="88.1222" y1="22.4928" x2="43.0756" y2="88.8865" gradientUnits="userSpaceOnUse">
<stop stop-color="white"/>
<stop offset="0.882869" stop-color="white" stop-opacity="0.2"/>
</linearGradient>
<linearGradient id="paint4_linear_5_1066" x1="47.6621" y1="70.5205" x2="68.5237" y2="35.2665" gradientUnits="userSpaceOnUse">
<stop stop-color="white" stop-opacity="0.25"/>
<stop offset="1" stop-color="white" stop-opacity="0"/>
</linearGradient>
</defs>
</svg>
