<svg width="156" height="154" viewBox="0 0 156 154" fill="none" xmlns="http://www.w3.org/2000/svg">
<g filter="url(#filter0_f_5_1056)">
<path d="M77.9258 128.63C106.704 128.63 130.034 105.569 130.034 77.1202C130.034 48.6719 106.704 25.61 77.9258 25.61C49.1472 25.61 25.8176 48.6719 25.8176 77.1202C25.8176 105.569 49.1472 128.63 77.9258 128.63Z" fill="#3BD30E" fill-opacity="0.25"/>
</g>
<path d="M68.1721 103.323C96.9506 103.323 120.28 80.2608 120.28 51.8125C120.28 23.3642 96.9506 0.302246 68.1721 0.302246C39.3936 0.302246 16.064 23.3642 16.064 51.8125C16.064 80.2608 39.3936 103.323 68.1721 103.323Z" fill="url(#paint0_linear_5_1056)"/>
<g filter="url(#filter1_f_5_1056)">
<path d="M68.1719 93.6808C91.5636 93.6808 110.526 74.9357 110.526 51.8124C110.526 28.6892 91.5636 9.94409 68.1719 9.94409C44.7803 9.94409 25.8176 28.6892 25.8176 51.8124C25.8176 74.9357 44.7803 93.6808 68.1719 93.6808Z" fill="url(#paint1_linear_5_1056)"/>
<path d="M109.526 51.8124C109.526 74.3726 91.0222 92.6808 68.1719 92.6808C45.3217 92.6808 26.8176 74.3726 26.8176 51.8124C26.8176 29.2523 45.3217 10.9441 68.1719 10.9441C91.0222 10.9441 109.526 29.2523 109.526 51.8124Z" stroke="url(#paint2_linear_5_1056)" stroke-width="2"/>
</g>
<g filter="url(#filter2_f_5_1056)">
<path d="M68.1719 93.6808C91.5636 93.6808 110.526 74.9357 110.526 51.8124C110.526 28.6892 91.5636 9.94409 68.1719 9.94409C44.7803 9.94409 25.8176 28.6892 25.8176 51.8124C25.8176 74.9357 44.7803 93.6808 68.1719 93.6808Z" fill="url(#paint3_linear_5_1056)"/>
<path d="M109.526 51.8124C109.526 74.3726 91.0222 92.6808 68.1719 92.6808C45.3217 92.6808 26.8176 74.3726 26.8176 51.8124C26.8176 29.2523 45.3217 10.9441 68.1719 10.9441C91.0222 10.9441 109.526 29.2523 109.526 51.8124Z" stroke="url(#paint4_linear_5_1056)" stroke-width="2"/>
</g>
<g filter="url(#filter3_d_5_1056)">
<path d="M95.4415 50.193C95.0715 35.722 83.216 24.3856 68.4714 24.3856C53.9735 24.3856 42.1355 35.4957 41.519 49.688C41.5014 50.0711 41.4837 50.4716 41.4837 50.8547C41.4837 55.5564 42.7521 60.1711 45.1655 64.2111C45.2183 64.3156 45.2359 64.4201 45.2007 64.5246L40.4268 78.4905C40.3563 78.6821 40.5501 78.8562 40.7439 78.804L55.4532 74.1719C55.5589 74.137 55.6646 74.1545 55.7527 74.2067C59.6634 76.2615 64.0498 77.3412 68.489 77.3412C83.3745 77.3412 95.4767 65.4649 95.4767 50.8547C95.4591 50.6632 95.4415 50.193 95.4415 50.193ZM50.2565 62.7832C47.8431 59.2482 46.5571 55.1385 46.5571 50.8547C46.5571 50.1756 46.5924 49.4964 46.6628 48.765C47.755 37.6898 57.1267 29.3486 68.4714 29.3486C79.8337 29.3486 89.4344 38.0555 90.3152 49.1656C90.3681 49.8273 90.3857 50.3497 90.3857 50.8373C90.3857 62.6961 80.556 72.326 68.4714 72.326C65.2477 72.326 62.0944 71.6294 59.2054 70.306C58.3951 69.9403 56.8801 69.0348 56.3868 68.7388C56.2812 68.6865 56.1755 68.6691 56.0698 68.7039L48.6711 71.0374C48.4949 71.0896 48.3363 70.9329 48.4068 70.7587L50.8026 63.7932C50.8378 63.6713 50.8202 63.5494 50.7497 63.4449C50.5912 63.2708 50.3446 62.9399 50.2565 62.7832Z" fill="url(#paint5_linear_5_1056)"/>
<path d="M81.296 56.7406C81.1198 56.4794 79.9571 55.9222 79.9571 55.9222C79.4991 55.6958 76.1168 54.0589 75.4827 53.8325C74.9366 53.6409 74.32 53.4146 73.7739 54.233C73.3511 54.8425 72.118 56.2705 71.7304 56.7058C71.4486 57.0193 71.1843 57.1237 70.5678 56.8103C70.4621 56.758 67.4497 55.4868 65.371 53.6758C63.5213 52.0737 62.253 50.0885 61.795 49.3049C61.5131 48.8347 61.6893 48.6083 62.0416 48.26C62.253 48.0511 63.2043 46.9192 63.2923 46.7973C63.4509 46.5709 63.7151 46.0136 63.7151 46.0136C63.997 45.4738 63.8208 45.0036 63.6623 44.7076C63.5566 44.4986 61.8126 40.3715 61.654 39.9884C61.1608 38.8217 60.6323 38.7694 60.1214 38.7869C59.8748 38.8043 57.5847 38.8217 56.8449 39.6053L56.7215 39.7446C55.9993 40.4934 54.5195 42.0607 54.5195 45.0733C54.5195 45.7698 54.6252 46.5012 54.8719 47.3023C55.2946 48.765 56.1226 50.3497 57.2324 51.8125C57.25 51.8473 58.9412 54.146 59.7691 55.1037C62.4291 58.1163 65.4239 60.3627 68.4538 61.5294C72.3118 63.027 73.9677 63.3579 74.9013 63.3579C75.3065 63.3579 76.1697 63.149 76.3635 63.1315C77.5437 63.0271 80.3447 61.5817 80.9436 59.9622C81.4897 58.4298 81.5074 57.0889 81.296 56.7406Z" fill="url(#paint6_linear_5_1056)"/>
</g>
<defs>
<filter id="filter0_f_5_1056" x="0.817627" y="0.609985" width="154.216" height="153.021" filterUnits="userSpaceOnUse" color-interpolation-filters="sRGB">
<feFlood flood-opacity="0" result="BackgroundImageFix"/>
<feBlend mode="normal" in="SourceGraphic" in2="BackgroundImageFix" result="shape"/>
<feGaussianBlur stdDeviation="12.5" result="effect1_foregroundBlur_5_1056"/>
</filter>
<filter id="filter1_f_5_1056" x="16.8176" y="0.944092" width="102.709" height="101.737" filterUnits="userSpaceOnUse" color-interpolation-filters="sRGB">
<feFlood flood-opacity="0" result="BackgroundImageFix"/>
<feBlend mode="normal" in="SourceGraphic" in2="BackgroundImageFix" result="shape"/>
<feGaussianBlur stdDeviation="4.5" result="effect1_foregroundBlur_5_1056"/>
</filter>
<filter id="filter2_f_5_1056" x="17.8176" y="1.94409" width="100.709" height="99.7367" filterUnits="userSpaceOnUse" color-interpolation-filters="sRGB">
<feFlood flood-opacity="0" result="BackgroundImageFix"/>
<feBlend mode="normal" in="SourceGraphic" in2="BackgroundImageFix" result="shape"/>
<feGaussianBlur stdDeviation="4" result="effect1_foregroundBlur_5_1056"/>
</filter>
<filter id="filter3_d_5_1056" x="37.412" y="24.3856" width="61.0647" height="61.4277" filterUnits="userSpaceOnUse" color-interpolation-filters="sRGB">
<feFlood flood-opacity="0" result="BackgroundImageFix"/>
<feColorMatrix in="SourceAlpha" type="matrix" values="0 0 0 0 0 0 0 0 0 0 0 0 0 0 0 0 0 0 127 0" result="hardAlpha"/>
<feOffset dy="4"/>
<feGaussianBlur stdDeviation="1.5"/>
<feComposite in2="hardAlpha" operator="out"/>
<feColorMatrix type="matrix" values="0 0 0 0 0 0 0 0 0 0 0 0 0 0 0 0 0 0 0.16 0"/>
<feBlend mode="normal" in2="BackgroundImageFix" result="effect1_dropShadow_5_1056"/>
<feBlend mode="normal" in="SourceGraphic" in2="effect1_dropShadow_5_1056" result="shape"/>
</filter>
<linearGradient id="paint0_linear_5_1056" x1="49.2521" y1="106.699" x2="84.813" y2="1.10005" gradientUnits="userSpaceOnUse">
<stop stop-color="#6BDC4A"/>
<stop offset="1" stop-color="#009A73"/>
</linearGradient>
<linearGradient id="paint1_linear_5_1056" x1="52.7935" y1="96.4254" x2="81.6979" y2="10.5925" gradientUnits="userSpaceOnUse">
<stop stop-color="#6BDC4A"/>
<stop offset="1" stop-color="#009A73"/>
</linearGradient>
<linearGradient id="paint2_linear_5_1056" x1="102.298" y1="26.8615" x2="68.7953" y2="93.9919" gradientUnits="userSpaceOnUse">
<stop stop-color="#DBFFB6"/>
<stop offset="1" stop-color="white" stop-opacity="0"/>
</linearGradient>
<linearGradient id="paint3_linear_5_1056" x1="52.7935" y1="96.4254" x2="81.6979" y2="10.5925" gradientUnits="userSpaceOnUse">
<stop stop-color="#6BDC4A"/>
<stop offset="1" stop-color="#009A73"/>
</linearGradient>
<linearGradient id="paint4_linear_5_1056" x1="102.298" y1="26.8615" x2="68.7953" y2="93.9919" gradientUnits="userSpaceOnUse">
<stop stop-color="#F5FFEA"/>
<stop offset="1" stop-color="white" stop-opacity="0"/>
</linearGradient>
<linearGradient id="paint5_linear_5_1056" x1="67.9443" y1="24.3856" x2="67.9443" y2="78.8134" gradientUnits="userSpaceOnUse">
<stop stop-color="white"/>
<stop offset="1" stop-color="#F2FFF7" stop-opacity="0.6"/>
</linearGradient>
<linearGradient id="paint6_linear_5_1056" x1="67.9705" y1="38.7845" x2="67.9705" y2="63.3579" gradientUnits="userSpaceOnUse">
<stop stop-color="white"/>
<stop offset="1" stop-color="#F2FFF7" stop-opacity="0.6"/>
</linearGradient>
</defs>
</svg>
